<svg xmlns="http://www.w3.org/2000/svg" width="144" height="44" viewBox="0 0 144 44" role="img" aria-label="FACEBOOK">
  <defs>
    <linearGradient id="bg" x1="0" y1="0" x2="0" y2="1"><stop offset="0" stop-color="#1B2029"/><stop offset="1" stop-color="#0F131A"/></linearGradient>
    <linearGradient id="hl" x1="0" y1="0" x2="1" y2="0"><stop offset="0" stop-color="#fff" stop-opacity="0"/><stop offset=".5" stop-color="#fff" stop-opacity=".18"/><stop offset="1" stop-color="#fff" stop-opacity="0"/></linearGradient>
  </defs>
  <rect x=".5" y=".5" width="143" height="43" rx="11" fill="url(#bg)" stroke="#2F3641"/>
  <rect x="14" y="1" width="116" height="1" fill="url(#hl)"/>
  <circle cx="26" cy="22" r="14" fill="#1877F2" fill-opacity=".14"/>
  <g transform="translate(17.5 13.5) scale(.7083)"><path fill="#1877F2" d="M9.101 23.691v-7.98H6.627v-3.667h2.474v-1.58c0-4.085 1.848-5.978 5.858-5.978.401 0 .955.042 1.468.103a8.68 8.68 0 0 1 1.141.195v3.325a8.623 8.623 0 0 0-.653-.036 26.805 26.805 0 0 0-.733-.009c-.707 0-1.259.096-1.675.309a1.686 1.686 0 0 0-.679.622c-.258.42-.374.995-.374 1.752v1.297h3.919l-.386 2.103-.287 1.564h-3.246v8.245C19.396 23.238 24 18.179 24 12.044c0-6.627-5.373-12-12-12s-12 5.373-12 12c0 5.628 3.874 10.35 9.101 11.647Z"/></g>
  <text x="50" y="26.5" fill="#F0F3F8" font-family="'Segoe UI','Helvetica Neue',Helvetica,Arial,sans-serif" font-size="12" font-weight="600" textLength="74" lengthAdjust="spacing">FACEBOOK</text>
</svg>